<svg xmlns="http://www.w3.org/2000/svg" xmlns:xlink="http://www.w3.org/1999/xlink" width="1468" height="768" viewBox="0 0 1468 768"><defs><style>.a{clip-path:url(#b);}.b{fill:#162067;opacity:0.24;}.c{fill:#1a8af8;opacity:0.29;}.d{fill:#186de5;}</style><clipPath id="b"><rect width="1468" height="768"/></clipPath></defs><g id="a" class="a"><rect class="d" width="1468" height="768"/><path class="b" d="M4.244,797.8s99.725-566.523,381.925-536.817S965.422,0,965.422,0H-8.487L4.244,787.191"/><path class="c" d="M1439,0s-42.851,148.527-165.916,239.764-207.937,55.167-205.815,205.815,572.888,252.5,676.857,65.776,176.11-292.809,201.572-341.611,0-222.79,0-222.79-481.65-72.141-496.5-10.609S1439,0,1439,0Z" transform="translate(42 -199)"/><path class="c" d="M1486.825-1.918s-48.363,145.307-187.259,234.567S1064.88,286.62,1067.274,434s646.585,247.022,763.929,64.35,198.765-286.462,227.5-334.206,0-217.96,0-217.96-543.611-70.578-560.374-10.379S1486.825-1.918,1486.825-1.918Z" transform="matrix(-0.978, -0.208, 0.208, -0.978, 2095.096, 1495.389)"/></g></svg>